:FULLY-SPECIFIED
:FORCE-ALL-JOINTS-BE-3DOF
:DEGREES
374
root 6.3191 16.4879 -16.2603 8.7352 -14.719 -5.26855
lfemur -41.3025 23.3617 -10.891
ltibia 76.3791 0 0
lfoot -11.6098 -3.76845 0
ltoes 13.9252 0 0
rfemur -28.0933 -6.59052 30.7641
rtibia 44.1951 0 0
rfoot -19.5284 0.533031 0
rtoes 17.3506 0 0
lowerback 5.2189 1.04815 2.5922
upperback 2.70236 1.50449 1.15068
thorax -0.109139 0.764603 -0.352763
lowerneck -8.05964 -1.54886 2.43057
upperneck -0.909159 -2.33373 2.51243
head 1.07384 -1.12685 0.294196
lclavicle -2.18643e-14 -1.84938e-14 0
lhumerus -41.2984 -22.6138 96.3605
lradius 57.9389 0 0
lwrist 21.1518 0 0
lhand -19.8883 3.86856 0
lfingers 7.12502 0 0
lthumb 6.44764 33.7504 0
rclavicle -2.18643e-14 -1.84938e-14 0
rhumerus -37.3771 11.3398 -93.0269
rradius 63.9026 0 0
rwrist 7.42927 0 0
rhand -9.8827 -21.0906 0
rfingers 7.12502 0 0
rthumb 16.0961 -770.434 0
375
root 6.29116 16.4827 -16.1811 8.61475 -15.091 -5.20129
lfemur -41.1001 23.1519 -10.8847
ltibia 75.9627 0 0
lfoot -11.6562 -3.51594 0
ltoes 13.7622 0 0
rfemur -28.372 -6.86582 30.6933
rtibia 44.8162 0 0
rfoot -19.1927 0.528973 0
rtoes 17.5885 0 0
lowerback 5.23466 1.10271 2.54122
upperback 2.69011 1.57358 1.09838
thorax -0.128225 0.798789 -0.383418
lowerneck -8.03143 -1.47975 2.51113
upperneck -0.84129 -2.24677 2.46294
head 1.09387 -1.08271 0.267731
lclavicle -2.18366e-14 -1.79654e-14 0
lhumerus -41.3593 -22.5364 96.3293
lradius 57.8308 0 0
lwrist 21.1092 0 0
lhand -19.9061 3.83119 0
lfingers 7.12502 0 0
lthumb 6.43048 33.7135 0
rclavicle -2.18366e-14 -1.79654e-14 0
rhumerus -37.4942 11.315 -92.9946
rradius 63.9306 0 0
rwrist 7.43761 0 0
rhand -10.0422 -21.0261 0
rfingers 7.12502 0 0
rthumb 15.9423 -770.378 0
376
root 6.25794 16.4765 -16.087 8.47155 -15.5334 -5.12133
lfemur -40.8595 22.9026 -10.8772
ltibia 75.4678 0 0
lfoot -11.7113 -3.21574 0
ltoes 13.5683 0 0
rfemur -28.7033 -7.19309 30.6091
rtibia 45.5546 0 0
rfoot -18.7937 0.524148 0
rtoes 17.8714 0 0
lowerback 5.25341 1.16757 2.48062
upperback 2.67555 1.65571 1.0362
thorax -0.150914 0.839431 -0.419863
lowerneck -7.99789 -1.3976 2.60689
upperneck -0.760606 -2.14339 2.40411
head 1.11768 -1.03022 0.236268
lclavicle -2.18036e-14 -1.73372e-14 0
lhumerus -41.4316 -22.4444 96.2922
lradius 57.7024 0 0
lwrist 21.0585 0 0
lhand -19.9272 3.78676 0
lfingers 7.12502 0 0
lthumb 6.41008 33.6696 0
rclavicle -2.18036e-14 -1.73372e-14 0
rhumerus -37.6334 11.2856 -92.9563
rradius 63.9637 0 0
rwrist 7.44753 0 0
rhand -10.2318 -20.9494 0
rfingers 7.12502 0 0
rthumb 15.7594 -770.311 0
377
root 6.21978 16.4694 -15.9789 8.30708 -16.0415 -5.02948
lfemur -40.5831 22.6162 -10.8685
ltibia 74.8993 0 0
lfoot -11.7747 -2.87093 0
ltoes 13.3457 0 0
rfemur -29.0838 -7.569 30.5124
rtibia 46.4026 0 0
rfoot -18.3353 0.518606 0
rtoes 18.1963 0 0
lowerback 5.27494 1.24207 2.41101
upperback 2.65883 1.75005 0.964779
thorax -0.176975 0.886111 -0.461723
lowerneck -7.95937 -1.30323 2.71689
upperneck -0.667932 -2.02465 2.33653
head 1.14503 -0.969939 0.20013
lclavicle -2.17658e-14 -1.66156e-14 0
lhumerus -41.5147 -22.3388 96.2496
lradius 57.5549 0 0
lwrist 21.0003 0 0
lhand -19.9515 3.73573 0
lfingers 7.12502 0 0
lthumb 6.38665 33.6192 0
rclavicle -2.17658e-14 -1.66156e-14 0
rhumerus -37.7933 11.2518 -92.9122
rradius 64.0018 0 0
rwrist 7.45892 0 0
rhand -10.4497 -20.8613 0
rfingers 7.12502 0 0
rthumb 15.5494 -770.234 0
